<svg width="27" height="37" viewBox="0 0 27 37" fill="none" xmlns="http://www.w3.org/2000/svg">
<path d="M11.5977 2.31307C12.6839 3.39924 14.446 3.39924 15.5322 2.31307C18.3169 -0.47169 22.5547 -0.786564 24.9524 1.6111C27.35 4.00876 27.0352 8.24945 24.2504 11.0313C23.1642 12.1175 23.1642 13.8796 24.2504 14.9687C27.0352 17.7534 27.35 21.9912 24.9524 24.3889C22.5547 26.7866 18.314 26.4717 15.5322 23.6869C14.446 22.6008 12.6839 22.6008 11.5948 23.6869C8.81004 26.4717 4.57224 26.7866 2.17458 24.3889C-0.223087 21.9912 0.091787 17.7506 2.87654 14.9687C2.87654 14.9687 3.40807 14.4372 3.91649 13.9287C4.42491 13.4203 4.4278 12.5855 3.91649 12.0742L2.87654 11.0342C0.0946757 8.24656 -0.220198 4.00588 2.17747 1.6111C4.57224 -0.786564 8.81293 -0.47169 11.5977 2.31307Z" fill="#343638"/>
<path d="M11.4365 15L13.3413 13L17.4365 16" stroke="#0F0F0F" stroke-width="1.3" stroke-miterlimit="10" stroke-linejoin="round"/>
<path d="M10.1865 11.5C9.77231 11.5 9.43652 11.1642 9.43652 10.75C9.43652 10.3358 9.77231 10 10.1865 10C10.6007 10 10.9365 10.3358 10.9365 10.75C10.9365 11.1642 10.6007 11.5 10.1865 11.5Z" fill="#0F0F0F"/>
<path d="M17.1865 11.5C16.7723 11.5 16.4365 11.1642 16.4365 10.75C16.4365 10.3358 16.7723 10 17.1865 10C17.6007 10 17.9365 10.3358 17.9365 10.75C17.9365 11.1642 17.6007 11.5 17.1865 11.5Z" fill="#0F0F0F"/>
</svg>
