<svg width="15" height="14" viewBox="0 0 15 14" fill="none" xmlns="http://www.w3.org/2000/svg">
<path d="M6.44101 1.2455C7.02587 1.83036 7.97471 1.83036 8.55957 1.2455C10.0591 -0.253987 12.3409 -0.423534 13.632 0.867515C14.923 2.15857 14.7535 4.44201 13.254 5.93994C12.6692 6.5248 12.6692 7.47364 13.254 8.06006C14.7535 9.55955 14.923 11.8414 13.632 13.1325C12.3409 14.4235 10.0575 14.254 8.55957 12.7545C7.97471 12.1696 7.02587 12.1696 6.43945 12.7545C4.93997 14.254 2.65808 14.4235 1.36703 13.1325C0.0759776 11.8414 0.245525 9.55799 1.74501 8.06006C1.74501 8.06006 2.03122 7.77385 2.30498 7.50009C2.57875 7.22632 2.5803 6.77679 2.30498 6.50147L1.74501 5.9415C0.247081 4.44046 0.077533 2.15701 1.36858 0.867515C2.65808 -0.423534 4.94152 -0.253987 6.44101 1.2455Z" fill="#979A9E"/>
</svg>
