<svg width="15" height="14" viewBox="0 0 15 14" fill="none" xmlns="http://www.w3.org/2000/svg">
<path d="M11.3884 0C10.7335 0 10.1237 0.202222 9.62285 0.549111C9.51551 0.623778 9.3724 0.623778 9.26507 0.549111C8.76262 0.203778 8.1544 0 7.49951 0C6.84462 0 6.23485 0.202222 5.73396 0.549111C5.62662 0.623778 5.48351 0.623778 5.37618 0.549111C4.87374 0.203778 4.26551 0 3.61062 0C1.89173 0 0.499512 1.39222 0.499512 3.11111V10.8889C0.499512 12.6078 1.89173 14 3.61062 14C4.26551 14 4.87529 13.7978 5.37618 13.4509C5.48351 13.3762 5.62662 13.3762 5.73396 13.4509C6.23485 13.7978 6.84307 14 7.49951 14C8.15596 14 8.76418 13.7978 9.26507 13.4509C9.3724 13.3762 9.51551 13.3762 9.62285 13.4509C10.1237 13.7978 10.732 14 11.3884 14C13.1073 14 14.4995 12.6078 14.4995 10.8889V3.11111C14.4995 1.39378 13.1073 0 11.3884 0Z" fill="#C65B3A"/>
</svg>
