<svg width="17" height="18" viewBox="0 0 17 18" fill="none" xmlns="http://www.w3.org/2000/svg">
<path fill-rule="evenodd" clip-rule="evenodd" d="M10 3C10 3.82843 9.32843 4.5 8.5 4.5C7.67157 4.5 7 3.82843 7 3C7 2.17157 7.67157 1.5 8.5 1.5C9.32843 1.5 10 2.17157 10 3ZM10 9C10 9.82843 9.32843 10.5 8.5 10.5C7.67157 10.5 7 9.82843 7 9C7 8.17157 7.67157 7.5 8.5 7.5C9.32843 7.5 10 8.17157 10 9ZM8.5 16.5C9.32843 16.5 10 15.8284 10 15C10 14.1716 9.32843 13.5 8.5 13.5C7.67157 13.5 7 14.1716 7 15C7 15.8284 7.67157 16.5 8.5 16.5Z" fill="#FAFAFA"/>
</svg>
