<svg width="12" height="13" viewBox="0 0 12 13" fill="none" xmlns="http://www.w3.org/2000/svg">
<path d="M10.6241 12.4684C11.3687 12.4661 11.9745 11.8707 11.9924 11.1263C12.0199 9.97348 11.9975 8.81508 11.4975 7.72476C11.0977 6.85306 10.569 6.08627 9.81357 5.48529C9.79898 5.47371 9.78532 5.46098 9.77096 5.44615C9.7001 5.37297 9.75174 5.25046 9.85364 5.25046H10.1109C11.1239 5.25046 11.9449 4.42925 11.9449 3.41651V2.0506C11.9449 1.17983 11.239 0.473711 10.368 0.473711H2.87402C1.12598 0.473711 -0.215841 2.02374 0.0347383 3.7537C0.215378 5.00058 0.745253 6.28173 2.09773 7.51517C2.17531 7.58603 2.12459 7.71526 2.01969 7.71526H0.81774C0.366142 7.71526 0 8.0814 0 8.533V11.055C0 11.8612 0.649374 12.5191 1.45554 12.5249C3.15285 12.5372 4.78601 12.3276 6.18944 11.0967C6.46851 10.8519 6.7214 10.577 7.02895 10.259C7.10098 10.1845 7.22719 10.2354 7.22719 10.3392V11.7801C7.22719 12.1648 7.53914 12.4767 7.92381 12.4767L10.6239 12.4684H10.6241Z" fill="#787C80"/>
</svg>
