<svg width="17" height="17" viewBox="0 0 17 17" fill="none" xmlns="http://www.w3.org/2000/svg">
<path d="M9.10942 14.0939C9.01496 13.7542 8.54205 13.7256 8.41036 14.0527C7.83222 15.4874 6.42701 16.5 4.7852 16.5C2.59263 16.4997 0.81543 14.7225 0.81543 12.5302V2.35996C0.81543 1.33291 1.64803 0.5 2.67539 0.5H7.60668C8.20606 0.5 8.6922 0.986144 8.6922 1.58552V3.49656C8.6922 3.84917 8.85035 4.18331 9.12296 4.407C9.12296 2.2492 10.8722 0.5 13.03 0.5C15.2222 0.5 16.9997 2.2772 16.9997 4.46977V14.6397C16.9997 15.6671 16.1671 16.4997 15.1398 16.4997H10.2085C9.60911 16.4997 9.12296 16.0135 9.12296 15.4142V14.1927C9.12296 14.1591 9.11835 14.1259 9.10942 14.0936V14.0939Z" fill="#87E3C0"/>
</svg>
