<svg width="27" height="26" viewBox="0 0 27 26" fill="none" xmlns="http://www.w3.org/2000/svg">
<path d="M11.1612 2.31307C12.2473 3.39924 14.0095 3.39924 15.0956 2.31307C17.8804 -0.47169 22.1182 -0.786564 24.5159 1.6111C26.9135 4.00876 26.5986 8.24945 23.8139 11.0313C22.7277 12.1175 22.7277 13.8796 23.8139 14.9687C26.5986 17.7534 26.9135 21.9912 24.5159 24.3889C22.1182 26.7866 17.8775 26.4717 15.0956 23.6869C14.0095 22.6008 12.2473 22.6008 11.1583 23.6869C8.37351 26.4717 4.13572 26.7866 1.73805 24.3889C-0.65961 21.9912 -0.344736 17.7506 2.44002 14.9687C2.44002 14.9687 2.97155 14.4372 3.47997 13.9287C3.98839 13.4203 3.99128 12.5855 3.47997 12.0742L2.44002 11.0342C-0.341848 8.24656 -0.656722 4.00588 1.74094 1.6111C4.13572 -0.786564 8.3764 -0.47169 11.1612 2.31307Z" fill="#3F4347"/>
<path d="M11 15L12.9048 13L17 16" stroke="#0F0F0F" stroke-width="1.3" stroke-miterlimit="10" stroke-linejoin="round"/>
<path d="M9.75 11.5C9.33579 11.5 9 11.1642 9 10.75C9 10.3358 9.33579 10 9.75 10C10.1642 10 10.5 10.3358 10.5 10.75C10.5 11.1642 10.1642 11.5 9.75 11.5Z" fill="#0F0F0F"/>
<path d="M16.75 11.5C16.3358 11.5 16 11.1642 16 10.75C16 10.3358 16.3358 10 16.75 10C17.1642 10 17.5 10.3358 17.5 10.75C17.5 11.1642 17.1642 11.5 16.75 11.5Z" fill="#0F0F0F"/>
</svg>
