<svg width="94" height="94" viewBox="0 0 94 94" fill="none" xmlns="http://www.w3.org/2000/svg">
<path d="M82.7188 93.8763C88.8125 93.8763 93.75 88.9388 93.75 82.845V20.9596C93.75 9.45959 84.4271 0.126255 72.9167 0.126255C67.4583 0.0325054 61.9688 2.36584 57.8125 6.52209L41.6667 22.6679V20.9596C41.6667 9.44917 32.3438 0.126255 20.8333 0.126255C9.32292 0.126255 0 9.45959 0 20.9596V73.0429C0 84.5534 9.32292 93.8763 20.8333 93.8763H82.7188Z" fill="#FDF3C5"/>
<g clip-path="url(#clip0_413_395)">
<path d="M57.0162 48.8015C58.5098 48.8015 59.7205 47.5907 59.7205 46.0971C59.7205 44.6036 58.5098 43.3928 57.0162 43.3928C55.5227 43.3928 54.3119 44.6036 54.3119 46.0971C54.3119 47.5907 55.5227 48.8015 57.0162 48.8015Z" fill="#0F0F0F"/>
<path d="M27.9447 51.2804C29.4382 51.2804 30.649 50.0696 30.649 48.576C30.649 47.0825 29.4382 45.8717 27.9447 45.8717C26.4511 45.8717 25.2404 47.0825 25.2404 48.576C25.2404 50.0696 26.4511 51.2804 27.9447 51.2804Z" fill="#0F0F0F"/>
<path d="M41.0156 48.3507L43.4946 65.7035" stroke="#0F0F0F" stroke-width="4.6875" stroke-miterlimit="10"/>
</g>
<defs>
<clipPath id="clip0_413_395">
<rect width="39.6635" height="22.4842" fill="white" transform="translate(25.2404 43.3928)"/>
</clipPath>
</defs>
</svg>
