<svg width="94" height="94" viewBox="0 0 94 94" fill="none" xmlns="http://www.w3.org/2000/svg">
<path d="M73.1667 0.123535C68.7812 0.123535 64.6979 1.4777 61.3437 3.80062C60.625 4.30062 59.6667 4.30062 58.9479 3.80062C55.5833 1.48812 51.5104 0.123535 47.125 0.123535C42.7396 0.123535 38.6562 1.4777 35.3021 3.80062C34.5833 4.30062 33.625 4.30062 32.9063 3.80062C29.5417 1.48812 25.4688 0.123535 21.0833 0.123535C9.57292 0.123535 0.25 9.44645 0.25 20.9569V73.0402C0.25 84.5506 9.57292 93.8735 21.0833 93.8735C25.4688 93.8735 29.5521 92.5194 32.9063 90.1964C33.625 89.6964 34.5833 89.6964 35.3021 90.1964C38.6562 92.5194 42.7292 93.8735 47.125 93.8735C51.5208 93.8735 55.5938 92.5194 58.9479 90.1964C59.6667 89.6964 60.625 89.6964 61.3437 90.1964C64.6979 92.5194 68.7708 93.8735 73.1667 93.8735C84.6771 93.8735 94 84.5506 94 73.0402V20.9569C94 9.45687 84.6771 0.123535 73.1667 0.123535Z" fill="#637BF2"/>
<path fill-rule="evenodd" clip-rule="evenodd" d="M58.8477 55.9976L61.0527 70.7001L56.417 71.3953L55.6708 66.4197L36.5451 69.818L35.7251 65.2028L54.9753 61.7824L54.212 56.6928L58.8477 55.9976Z" fill="#0F0F0F"/>
<path d="M31.8005 52.4072C30.307 52.4072 29.0962 51.1964 29.0962 49.7029C29.0962 48.2093 30.307 46.9985 31.8005 46.9985C33.2941 46.9985 34.5048 48.2093 34.5048 49.7029C34.5048 51.1964 33.2941 52.4072 31.8005 52.4072Z" fill="#0F0F0F"/>
<path d="M65.6046 52.4072C64.111 52.4072 62.9003 51.1964 62.9003 49.7029C62.9003 48.2093 64.111 46.9985 65.6046 46.9985C67.0982 46.9985 68.3089 48.2093 68.3089 49.7029C68.3089 51.1964 67.0982 52.4072 65.6046 52.4072Z" fill="#0F0F0F"/>
</svg>
