<svg width="94" height="94" viewBox="0 0 94 94" fill="none" xmlns="http://www.w3.org/2000/svg">
<path d="M91.1384 69.586L78.3675 49.7144C76.1492 46.2626 77.4656 41.546 81.2389 39.9497C88.6713 36.7984 93.875 29.4385 93.875 20.8555C93.875 9.40109 84.5974 0.123535 73.143 0.123535H14.5441C6.58302 0.123535 0.125 6.58154 0.125 14.5426C0.125 18.3469 1.17197 22.0891 3.16224 25.3336L7.10131 31.7709L15.6014 44.8528C17.799 48.2321 16.5862 52.8449 12.9374 54.5553C5.86776 57.8621 0.581106 64.6207 0.581106 72.6751C0.581106 84.1295 9.85867 93.4071 21.3131 93.4071H78.9894C86.9505 93.4071 93.4085 86.9491 93.4085 78.988V77.3191C93.4085 74.5721 92.6207 71.8873 91.1384 69.586Z" fill="#B5E164"/>
<path d="M29.9386 37.3972C28.4559 37.2935 27.338 36.0075 27.4417 34.5249C27.5454 33.0422 28.8314 31.9243 30.314 32.028C31.7967 32.1317 32.9146 33.4176 32.8109 34.9003C32.7073 36.383 31.4213 37.5009 29.9386 37.3972Z" fill="#0F0F0F"/>
<path d="M62.0037 41.7975C60.521 41.6938 59.4031 40.4078 59.5068 38.9251C59.6104 37.4425 60.8964 36.3246 62.3791 36.4282C63.8618 36.5319 64.9797 37.8179 64.876 39.3006C64.7723 40.7833 63.4863 41.9011 62.0037 41.7975Z" fill="#0F0F0F"/>
<path d="M54.0136 40.1585C54.0136 40.1585 53.1298 49.2351 45.603 48.148C37.8033 47.0213 39.8728 37.8162 39.8728 37.8162" stroke="#0F0F0F" stroke-width="4.66469" stroke-miterlimit="10"/>
</svg>
