<svg width="29" height="28" viewBox="0 0 29 28" fill="none" xmlns="http://www.w3.org/2000/svg">
<path id="Vector" d="M17.8425 25.981C16.9123 26.6252 15.7827 27.0007 14.5636 27.0007C13.3445 27.0007 12.2149 26.6252 11.2847 25.981C11.0854 25.8423 10.8196 25.8423 10.6203 25.981H17.8425ZM17.8425 25.981C18.0418 25.8423 18.3076 25.8423 18.5069 25.981H17.8425ZM18.2223 1.60946L18.2214 1.61006C18.1937 1.62933 18.1557 1.62933 18.128 1.61005L18.1257 1.60845C17.1128 0.912257 15.8851 0.500732 14.5636 0.500732C13.2432 0.500732 12.0119 0.908717 11 1.60946L10.9992 1.61006C10.9715 1.62933 10.9335 1.62933 10.9058 1.61006L10.9058 1.61005L10.9035 1.60845C9.89055 0.912257 8.66291 0.500732 7.34138 0.500732C3.87301 0.500732 1.0636 3.31015 1.0636 6.77851V21.223C1.0636 24.6913 3.87301 27.5007 7.34138 27.5007C8.66176 27.5007 9.8931 27.0928 10.9049 26.392L10.9058 26.3914C10.9335 26.3721 10.9715 26.3721 10.9992 26.3914L11 26.392C12.0118 27.0927 13.2402 27.5007 14.5636 27.5007C15.887 27.5007 17.1154 27.0927 18.1272 26.392L18.128 26.3914C18.1557 26.3721 18.1937 26.3721 18.2214 26.3914L18.2223 26.392C19.234 27.0927 20.4624 27.5007 21.7858 27.5007C25.2542 27.5007 28.0636 24.6913 28.0636 21.223V6.77851C28.0636 3.3132 25.2543 0.500732 21.7858 0.500732C20.4654 0.500732 19.2341 0.908717 18.2223 1.60946Z" stroke="#FAFAFA"/>
</svg>
