<svg width="27" height="26" viewBox="0 0 27 26" fill="none" xmlns="http://www.w3.org/2000/svg">
<path id="Vector" d="M20.7858 0.000732422C19.5696 0.000732422 18.4372 0.376288 17.5069 1.02051C17.3076 1.15918 17.0418 1.15918 16.8425 1.02051C15.9094 0.379177 14.7798 0.000732422 13.5636 0.000732422C12.3474 0.000732422 11.2149 0.376288 10.2847 1.02051C10.0854 1.15918 9.8196 1.15918 9.62027 1.02051C8.68716 0.379177 7.5576 0.000732422 6.34138 0.000732422C3.14915 0.000732422 0.563599 2.58629 0.563599 5.77851V20.223C0.563599 23.4152 3.14915 26.0007 6.34138 26.0007C7.5576 26.0007 8.69005 25.6252 9.62027 24.981C9.8196 24.8423 10.0854 24.8423 10.2847 24.981C11.2149 25.6252 12.3445 26.0007 13.5636 26.0007C14.7827 26.0007 15.9123 25.6252 16.8425 24.981C17.0418 24.8423 17.3076 24.8423 17.5069 24.981C18.4372 25.6252 19.5667 26.0007 20.7858 26.0007C23.978 26.0007 26.5636 23.4152 26.5636 20.223V5.77851C26.5636 2.58918 23.978 0.000732422 20.7858 0.000732422Z" fill="#1D1E1F"/>
</svg>
