<svg width="15" height="14" viewBox="0 0 15 14" fill="none" xmlns="http://www.w3.org/2000/svg">
<path d="M14.0913 10.4249L12.1842 7.44261C11.8529 6.92455 12.0495 6.21669 12.613 5.97711C13.7229 5.50417 14.5 4.3996 14.5 3.11146C14.5 1.39238 13.1146 0 11.404 0H2.65325C1.4644 0 0.5 0.969219 0.5 2.16402C0.5 2.73497 0.656347 3.29659 0.95356 3.78353L1.5418 4.74964L2.81115 6.71297C3.13932 7.22014 2.9582 7.91243 2.41331 8.16913C1.35759 8.66541 0.568112 9.67974 0.568112 10.8885C0.568112 12.6076 1.95356 14 3.66409 14H12.2771C13.4659 14 14.4303 13.0308 14.4303 11.836V11.5855C14.4303 11.1732 14.3127 10.7703 14.0913 10.4249Z" fill="#5FC69A"/>
</svg>
