<svg width="37" height="36" viewBox="0 0 37 36" fill="none" xmlns="http://www.w3.org/2000/svg">
<path d="M18.949 30.2379C18.7389 29.4824 17.6869 29.4187 17.394 30.1462C16.108 33.3376 12.9823 35.59 9.33027 35.59C4.45316 35.5894 0.5 31.6362 0.5 26.7598V4.13726C0.5 1.8527 2.35202 0 4.63726 0H15.6063C16.9395 0 18.0209 1.08137 18.0209 2.4146V6.66547C18.0209 7.44981 18.3727 8.19308 18.9791 8.69065C18.9791 3.89088 22.87 0 27.6697 0C32.5462 0 36.5 3.95316 36.5 8.83027V31.4521C36.5 33.7373 34.648 35.5894 32.3627 35.5894H21.3937C20.0605 35.5894 18.9791 34.508 18.9791 33.1748V30.4576C18.9791 30.383 18.9688 30.3091 18.949 30.2373V30.2379Z" fill="#87E3C0"/>
</svg>
